<?xml version="1.0" standalone="no"?>
<!DOCTYPE svg PUBLIC "-//W3C//DTD SVG 20010904//EN"
 "http://www.w3.org/TR/2001/REC-SVG-20010904/DTD/svg10.dtd">
<svg version="1.0" xmlns="http://www.w3.org/2000/svg"
 width="1024.000000pt" height="1024.000000pt" viewBox="0 0 1024.000000 1024.000000"
 preserveAspectRatio="xMidYMid meet">

<g transform="translate(0.000000,1024.000000) scale(0.100000,-0.100000)"
fill="#000000" stroke="none">
<path d="M7743 8686 c-160 -39 -294 -74 -298 -77 -7 -8 526 -339 546 -339 8 0
67 12 132 27 l119 27 -6 31 c-3 16 -23 104 -45 195 -44 183 -61 211 -124 209
-18 -1 -163 -33 -324 -73z"/>
<path d="M6515 8390 c-60 -15 -228 -56 -372 -91 -145 -34 -263 -65 -263 -68 0
-3 21 -19 48 -35 136 -84 230 -142 356 -221 l140 -86 388 92 c296 71 385 96
376 105 -26 23 -539 334 -551 333 -7 0 -61 -13 -122 -29z"/>
<path d="M4692 7951 c-199 -49 -365 -91 -368 -94 -3 -3 5 -12 18 -20 12 -8
109 -67 213 -132 105 -64 214 -132 243 -152 30 -19 61 -35 70 -35 10 -1 105
20 212 47 107 26 260 63 339 81 79 19 162 39 184 45 l40 11 -44 28 c-225 142
-509 310 -525 309 -10 0 -182 -40 -382 -88z"/>
<path d="M3295 7614 c-301 -74 -996 -243 -1070 -260 -34 -8 -117 -14 -192 -14
l-133 0 0 -490 0 -490 48 0 47 0 -3 -1537 c-2 -1140 1 -1544 9 -1560 7 -13 9
-34 4 -55 -9 -40 -9 -116 0 -182 5 -34 4 -47 -4 -42 -8 5 -11 -18 -11 -76 0
-57 3 -78 10 -68 7 11 10 7 10 -18 0 -21 -4 -31 -11 -27 -7 5 -9 -58 -6 -216
3 -203 6 -229 25 -272 12 -26 17 -45 12 -42 -5 3 -21 0 -36 -8 l-26 -14 35
-16 c54 -26 379 -54 717 -63 63 -1 1062 -3 2220 -4 2013 0 2570 5 2955 31 291
19 375 35 375 74 0 11 8 34 18 50 15 27 17 66 19 348 2 204 -1 317 -7 317 -6
0 -10 18 -10 41 0 24 4 38 10 34 6 -4 10 22 10 69 0 44 -4 76 -10 76 -5 0 -10
16 -10 35 0 19 5 35 10 35 7 0 10 526 10 1559 l0 1560 23 3 22 3 3 233 2 232
-134 -1 c-74 0 -136 -4 -138 -7 -2 -4 -102 -105 -224 -224 l-220 -218 -392 0
c-216 0 -392 3 -392 8 0 4 95 102 210 217 116 115 210 213 210 217 0 5 -176 8
-392 8 l-392 0 -226 -225 -227 -225 -397 -2 c-218 -2 -396 0 -396 5 0 4 95
102 210 218 116 116 210 215 210 220 0 4 -177 8 -394 7 l-393 0 -224 -224
-224 -224 -392 0 c-216 0 -393 3 -393 7 0 4 98 106 217 225 l218 218 -712 0
-711 0 -41 47 c-22 26 -37 50 -33 54 4 3 113 31 242 62 129 31 406 98 615 148
209 50 438 105 509 123 l130 32 -270 166 c-148 92 -276 169 -284 172 -8 2
-114 -20 -235 -50z m-1130 -504 c7 -23 -8 -56 -33 -69 -40 -21 -102 7 -102 46
0 18 31 53 55 63 25 10 71 -13 80 -40z m-25 -440 c26 -26 25 -62 -2 -87 -29
-27 -71 -21 -88 12 -33 63 41 124 90 75z m467 -8 c20 -26 15 -51 -14 -78 -29
-27 -57 -25 -84 6 -34 40 9 107 60 95 14 -4 31 -14 38 -23z m1876 -766 c81
-34 129 -120 130 -230 0 -88 -23 -146 -81 -198 -46 -41 -87 -53 -168 -46 -206
17 -253 372 -63 466 51 25 133 29 182 8z m563 -17 c23 -16 51 -48 69 -80 26
-47 30 -64 29 -134 0 -104 -28 -165 -98 -212 -42 -29 -57 -33 -113 -33 -99 0
-148 30 -193 120 -32 61 -33 175 -4 240 24 52 66 97 109 117 49 22 154 13 201
-18z m843 20 c36 -13 45 -46 9 -34 -48 15 -138 17 -169 4 -38 -15 -63 -67 -54
-110 8 -34 35 -50 132 -80 89 -28 123 -62 123 -123 0 -62 -17 -94 -62 -117
-65 -33 -228 -21 -228 18 0 11 6 13 23 8 12 -4 57 -10 99 -12 76 -5 78 -4 108
25 23 24 30 39 30 69 0 62 -27 83 -150 117 -67 18 -100 50 -107 103 -7 50 16
97 60 123 37 23 133 27 186 9z m-406 -13 c46 -19 69 -49 74 -98 10 -98 -64
-158 -194 -158 l-73 0 0 -106 c0 -80 -3 -105 -12 -102 -10 4 -14 63 -16 241
l-2 237 95 0 c58 0 108 -5 128 -14z m744 -153 c-7 -154 -10 -183 -21 -172 -2
2 -6 79 -8 172 -3 159 -2 167 16 167 18 0 19 -7 13 -167z m9 -285 c-1 -16 -7
-23 -21 -23 -13 0 -21 8 -23 23 -3 18 1 22 21 22 19 0 24 -5 23 -22z m-854
-330 c128 -59 208 -184 259 -404 30 -128 38 -436 15 -590 -38 -256 -135 -428
-284 -501 -79 -38 -211 -45 -294 -13 -67 25 -143 89 -187 159 -41 63 -85 186
-108 297 -25 126 -25 472 0 597 45 224 136 378 262 444 95 50 241 55 337 11z
m1198 -12 c3 -17 4 -221 3 -455 0 -234 1 -438 4 -453 l5 -28 94 0 94 0 0 -70
0 -70 -94 0 -94 0 -7 -30 c-4 -17 -5 -113 -4 -213 l3 -182 -97 -3 -97 -3 0
215 0 216 -295 0 -295 0 0 62 c0 66 -1 63 182 371 91 153 298 506 326 557 14
25 35 61 47 80 l22 35 99 0 99 0 5 -29z m-2118 -453 l3 -478 98 -3 97 -3 0
-69 0 -69 -97 -3 -98 -3 -5 -210 -5 -211 -92 -3 -93 -3 -2 214 -3 213 -297 3
-298 2 0 57 c0 55 4 63 152 312 195 329 264 447 355 604 l75 127 104 0 104 0
2 -477z m-313 -1473 c4 0 18 11 31 25 13 14 28 25 34 25 6 0 

c43 8 50 43 11 52 -55 13 -48 71 8 69 l26 -1 -25 -7z m154 -7 c19 -18 21 -85
4 -102 -18 -18 -69 -15 -84 6 -45 59 28 148 80 96z m140 7 c4 -6 18 -5 35 2
45 17 61 -3 59 -72 l-1 -56 -6 54 c-11 96 -71 96 -71 0 0 -27 -4 -49 -10 -49
-5 0 -7 12 -4 28 8 46 -9 87 -37 87 -22 0 -24 -4 -27 -57 -4 -78 -22 -74 -22
5 l0 62 39 3 c22 1 42 -2 45 -7z m217 -1 c10 -6 19 -21 18 -33 l0 -22 -9 23
c-12 28 -33 37 -58 23 -16 -8 -20 -19 -18 -47 4 -44 12 -51 56 -57 34 -4 33
-4 -7 -5 -47 -2 -63 14 -63 67 0 50 37 74 81 51z m65 -6 c1 -28 17 -74 24 -74
5 0 14 18 20 40 6 21 15 42 20 45 6 3 10 5 10 3 0 -2 9 -28 19 -58 l18 -55 7
40 c4 22 12 47 17 55 8 11 9 4 4 -23 -7 -43 -25 -87 -35 -87 -3 0 -13 26 -22
58 l-15 57 -17 -57 c-10 -32 -21 -58 -26 -58 -7 0 -21 39 -20 55 0 3 -6 21
-15 41 -11 26 -11 34 -2 31 6 -2 12 -8 13 -13z m402 4 c14 -14 16 -58 3 -58
-5 0 -7 8 -4 18 6 26 -24 49 -45 35 -10 -5 -17 -19 -17 -29 0 -10 -3 -21 -7
-24 -16 -12 23 -49 55 -53 28 -3 27 -4 -10 -5 -47 -2 -63 14 -63 64 0 51 56
84 88 52z m101 -2 c-20 -9 -25 -20 -27 -64 -4 -73 -21 -65 -21 11 l0 63 36 1
c34 1 34 1 12 -11z m125 -2 c18 -17 21 -44 7 -44 -5 0 -11 10 -13 22 -3 25
-34 36 -50 20 -16 -16 -20 -78 -6 -90 7 -6 27 -12 43 -15 27 -4 27 -4 -7 -6
-32 -1 -40 3 -53 29 -33 64 32 132 79 84z m176 -64 l-7 -55 -1 70 c-1 41 2 64
7 55 4 -8 5 -40 1 -70z m80 61 c13 -24 13 -111 1 -111 -6 0 -7 15 -5 33 3 17
1 45 -5 61 -10 24 -15 27 -37 22 -17 -5 -23 -3 -19 4 11 17 54 11 65 -9z m334
3 c20 -19 21 -74 3 -98 -10 -14 -23 -17 -45 -14 -31 4 -32 3 -32 -30 0 -20 -3
-33 -6 -30 -12 12 -5 171 8 179 21 14 55 10 72 -7z m122 8 c6 -4 13 -32 16
-63 l4 -57 -45 2 c-40 1 -46 4 -49 25 -5 31 10 44 48 43 44 -1 42 34 -2 47
-29 8 -30 9 -8 10 14 0 30 -3 36 -7z m144 -1 c0 -4 -10 -6 -23 -4 -28 6 -49
-17 -49 -52 0 -34 18 -53 55 -58 31 -4 31 -4 -5 -5 -30 -2 -41 3 -54 23 -19
29 -11 80 14 95 21 12 62 13 62 1z m117 -3 c16 -21 23 -48 13 -48 -6 0 -10 9
-10 20 0 25 -27 37 -49 23 -19 -12 -25 -77 -8 -91 7 -6 26 -12 42 -15 28 -4
28 -4 -6 -6 -44 -1 -63 18 -63 64 0 18 6 40 13 49 16 19 55 21 68 4z m-853
-63 c1 -30 -2 -55 -6 -55 -5 0 -8 28 -8 62 0 34 3 58 7 54 4 -3 7 -31 7 -61z
m-814 15 c0 -5 -7 -10 -15 -10 -8 0 -15 5 -15 10 0 6 7 10 15 10 8 0 15 -4 15
-10z m450 0 c0 -5 -7 -10 -16 -10 -8 0 -12 5 -9 10 3 6 10 10 16 10 5 0 9 -4
9 -10z m225 0 c-3 -5 -10 -10 -16 -10 -5 0 -9 5 -9 10 0 6 7 10 16 10 8 0 12
-4 9 -10z"/>
<path d="M4315 5862 c-68 -43 -95 -101 -95 -202 0 -82 14 -123 59 -167 32 -30
105 -57 133 -49 7 2 25 7 40 10 45 10 95 62 114 118 33 100 1 230 -69 282 -40
29 -141 34 -182 8z"/>
<path d="M4850 5861 c-19 -10 -48 -36 -64 -59 -24 -34 -30 -54 -34 -115 -5
-84 7 -133 45 -178 68 -80 189 -83 260 -7 49 52 68 160 43 250 -30 106 -154
161 -250 109z"/>
<path d="M5290 5765 l0 -105 70 0 c123 0 184 55 159 144 -13 47 -57 66 -153
66 l-76 0 0 -105z"/>
<path d="M5180 4988 c-109 -30 -176 -181 -201 -457 -27 -296 20 -607 110 -719
82 -104 214 -88 283 34 112 200 119 781 12 1014 -48 106 -120 151 -204 128z"/>
<path d="M6343 4797 c-29 -56 -74 -140 -101 -187 -155 -272 -242 -428 -242
-434 0 -3 87 -6 194 -6 l193 0 6 338 c3 185 9 349 13 365 13 55 -12 24 -63
-76z"/>
<path d="M4216 4792 c-31 -61 -119 -221 -196 -358 -77 -136 -140 -251 -140
-256 0 -5 87 -7 193 -6 l192 3 6 360 c3 198 5 361 3 363 -1 2 -27 -46 -58
-106z"/>
<path d="M5441 3157 c-15 -18 -4 -47 18 -47 26 0 43 16 39 36 -4 23 -40 30
-57 11z"/>
<path d="M3862 3208 c-17 -17 -15 -64 4 -82 43 -43 94 17 64 75 -12 21 -50 25
-68 7z"/>
<path d="M3999 3196 c-24 -52 15 -101 61 -76 23 12 28 68 8 88 -21 21 -57 14
-69 -12z"/>
<path d="M4667 3213 c-18 -18 -5 -33 29 -33 29 0 35 3 30 16 -3 9 -6 18 -6 20
0 7 -46 5 -53 -3z"/>
<path d="M5307 3213 c-4 -3 -7 -26 -7 -49 0 -33 4 -44 19 -49 44 -14 74 33 52
81 -10 23 -48 33 -64 17z"/>
<path d="M5582 3208 c-17 -17 -15 -73 3 -88 8 -6 22 -10 32 -8 14 3 18 13 18
53 0 42 -3 50 -20 53 -11 1 -26 -3 -33 -10z"/>
<path d="M5722 3208 c-20 -20 -14 -28 24 -28 28 0 35 3 32 18 -4 21 -39 27
-56 10z"/>
<path d="M6094 3155 c-10 -25 4 -47 27 -43 31 4 49 35 29 48 -22 14 -50 12
-56 -5z"/>
<path d="M6452 3208 c-7 -7 -12 -27 -12 -45 0 -59 72 -71 85 -13 3 16 1 38 -5
49 -12 23 -49 28 -68 9z"/>
<path d="M4226 2874 c-31 -30 -12 -94 27 -94 30 0 47 18 47 48 0 55 -40 80
-74 46z"/>
<path d="M5872 2881 c-9 -5 -12 -24 -10 -52 3 -37 7 -45 26 -47 31 -5 52 15
52 49 0 44 -36 71 -68 50z"/>
<path d="M5993 2814 c-8 -21 10 -36 38 -32 16 2 25 11 27 26 3 19 -1 22 -28
22 -19 0 -33 -6 -37 -16z"/>
</g>
</svg>
